# xmcd
#
# Track frame offsets:
#	150
#	15525
#	23862
#	34596
#	49783
#	59266
#	72747
#	90462
#	107993
#	120243
#	139344
#	148612
#	167257
#	178856
#	190791
#	202143
#
# Disc length: 2896 seconds
#
# Revision: 1
# Processed by: cddbd v1.5.2PL0 Copyright (c) Steve Scherf et al.
# Submitted via: audiograbber 1.83.01
#
DISCID=e10b4e10
DTITLE=Birgti Nolte und Michael Lauenstein - Johnny
DYEAR=2005
DGENRE=Chanson
TTITLE0=Mein Herr
TTITLE1=Weil ich dich so liebe oder ...
TTITLE2=I'm sorry
TTITLE3=Il pleut
TTITLE4=Johnny tu n'es pas un ange
TTITLE5=C'est l'amour
TTITLE6=L'accordéoniste
TTITLE7=Je hais les dimanches
TTITLE8=La foule
TTITLE9=Les mots d'amour
TTITLE10=Les flonflons du bal
TTITLE11=La vie en rose
TTITLE12=Padam, padam
TTITLE13=Mon manège à moi
TTITLE14=Wer bis du den ich liebe
TTITLE15=Resignation
EXTD=
EXTT0=
EXTT1=
EXTT2=
EXTT3=
EXTT4=
EXTT5=
EXTT6=
EXTT7=
EXTT8=
EXTT9=
EXTT10=
EXTT11=
EXTT12=
EXTT13=
EXTT14=
EXTT15=
PLAYORDER=
